<svg xmlns="http://www.w3.org/2000/svg" viewBox="0 0 162.2 48" width="162.2" height="48"><circle cx="22.0" cy="24.0" r="16.0" fill="none" stroke="#1e4d76" stroke-width="3.2"/><path d="M26.00,24.00 L26.06,23.91 L26.12,23.81 L26.18,23.71 L26.24,23.61 L26.29,23.51 L26.34,23.41 L26.39,23.30 L26.43,23.19 L26.47,23.07 L26.51,22.96 L26.55,22.84 L26.58,22.72 L26.61,22.60 L26.63,22.48 L26.65,22.35 L26.67,22.23 L26.68,22.10 L26.69,21.97 L26.70,21.84 L26.70,21.71 L26.70,21.58 L26.69,21.44 L26.68,21.31 L26.67,21.17 L26.65,21.04 L26.63,20.90 L26.61,20.76 L26.58,20.63 L26.54,20.49 L26.50,20.35 L26.46,20.22 L26.42,20.08 L26.37,19.94 L26.31,19.81 L26.25,19.67 L26.19,19.54 L26.12,19.40 L26.05,19.27 L25.98,19.14 L25.90,19.01 L25.82,18.88 L25.73,18.75 L25.64,18.63 L25.54,18.50 L25.44,18.38 L25.34,18.26 L25.23,18.14 L25.12,18.03 L25.01,17.91 L24.89,17.80 L24.77,17.69 L24.64,17.58 L24.52,17.48 L24.38,17.38 L24.25,17.28 L24.11,17.19 L23.97,17.09 L23.82,17.01 L23.67,16.92 L23.52,16.84 L23.37,16.76 L23.21,16.68 L23.05,16.61 L22.89,16.55 L22.72,16.48 L22.56,16.42 L22.39,16.37 L22.21,16.31 L22.04,16.27 L21.86,16.22 L21.69,16.18 L21.51,16.15 L21.32,16.12 L21.14,16.09 L20.96,16.07 L20.77,16.05 L20.58,16.04 L20.39,16.03 L20.20,16.03 L20.01,16.03 L19.82,16.04 L19.63,16.05 L19.44,16.07 L19.24,16.09 L19.05,16.11 L18.86,16.15 L18.67,16.18 L18.47,16.22 L18.28,16.27 L18.09,16.32 L17.89,16.37 L17.70,16.44 L17.51,16.50 L17.32,16.57 L17.13,16.65 L16.95,16.73 L16.76,16.81 L16.57,16.90 L16.39,17.00 L16.21,17.10 L16.03,17.20 L15.85,17.31 L15.68,17.43 L15.50,17.55 L15.33,17.67 L15.16,17.80 L14.99,17.93 L14.83,18.07 L14.67,18.21 L14.51,18.36 L14.36,18.51 L14.20,18.66 L14.06,18.82 L13.91,18.98 L13.77,19.15 L13.63,19.32 L13.50,19.50 L13.37,19.68 L13.24,19.86 L13.12,20.04 L13.00,20.23 L12.88,20.43 L12.77,20.62 L12.67,20.82 L12.57,21.03 L12.47,21.23 L12.38,21.44 L12.29,21.65 L12.21,21.86 L12.13,22.08 L12.06,22.30 L11.99,22.52 L11.93,22.75 L11.87,22.97 L11.82,23.20 L11.77,23.43 L11.73,23.66 L11.69,23.89 L11.66,24.13 L11.64,24.36 L11.62,24.60 L11.61,24.84 L11.60,25.07 L11.60,25.31 L11.60,25.55 L11.61,25.80 L11.62,26.04 L11.64,26.28 L11.67,26.52 L11.70,26.76 L11.74,27.00 L11.78,27.24 L11.83,27.48 L11.89,27.72 L11.95,27.96 L12.01,28.20 L12.09,28.44 L12.16,28.67 L12.25,28.91 L12.34,29.14 L12.43,29.37 L12.53,29.60 L12.64,29.83 L12.75,30.05 L12.87,30.28 L12.99,30.50 L13.12,30.71 L13.26,30.93 L13.39,31.14 L13.54,31.35 L13.69,31.56 L13.84,31.77 L14.00,31.97 L14.17,32.16 L14.34,32.36 L14.52,32.55 L14.70,32.74 L14.88,32.92 L15.07,33.10 L15.26,33.27 L15.46,33.44 L15.66,33.61 L15.87,33.77 L16.08,33.93 L16.30,34.08 L16.52,34.23 L16.74,34.37 L16.96,34.51 L17.19,34.64 L17.43,34.77 L17.67,34.89 L17.91,35.01 L18.15,35.12 L18.40,35.23 L18.64,35.33 L18.90,35.42 L19.15,35.51 L19.41,35.60 L19.67,35.67 L19.93,35.75 L20.19,35.81 L20.46,35.87 L20.73,35.92 L20.99,35.97 L21.27,36.01 L21.54,36.05 L21.81,36.08 L22.08,36.10 L22.36,36.11 L22.64,36.12 L22.91,36.13 L23.19,36.12 L23.47,36.11 L23.74,36.10 L24.02,36.08 L24.30,36.05 L24.57,36.01 L24.85,35.97 L25.13,35.92 L25.40,35.87 L25.68,35.80 L25.95,35.74 L26.22,35.66 L26.49,35.58 L26.76,35.49 L27.03,35.40 L27.29,35.30 L27.56,35.20 L27.82,35.08 L28.08,34.96 L28.33,34.84 L28.59,34.71 L28.84,34.57 L29.09,34.43 L29.33,34.28 L29.58,34.13 L29.81,33.97 L30.05,33.80 L30.28,33.63 L30.51,33.45 L30.73,33.27 L30.95,33.08 L31.17,32.89 L31.38,32.69 L31.59,32.49 L31.79,32.28 L31.99,32.06 L32.19,31.84 L32.38,31.62 L32.56,31.39 L32.74,31.16 L32.91,30.93 L33.08,30.68 L33.24,30.44 L33.40,30.19 L33.55,29.94 L33.70,29.68 L33.84,29.42 L33.98,29.16 L34.10,28.89 L34.23,28.62 L34.34,28.35 L34.45,28.07 L34.56,27.79 L34.66,27.51 L34.75,27.23 L34.83,26.94 L34.91,26.65 L34.98,26.36 L35.05,26.07 L35.11,25.77 L35.16,25.48 L35.20,25.18 L35.24,24.88 L35.27,24.58 L35.30,24.28 L35.31,23.98 L35.32,23.67 L35.33,23.37 L35.32,23.07 L35.31,22.76 L35.30,22.46 L35.27,22.16 L35.24,21.86 L35.20,21.55 L35.16,21.25 L35.10,20.95 L35.04,20.65 L34.98,20.35 L34.91,20.05 L34.83,19.76 L34.74,19.46 L34.64,19.17 L34.54,18.88 L34.44,18.59 L34.32,18.31 L34.20,18.02 L34.08,17.74 L33.94,17.46 L33.80,17.19 L33.65,16.91 L33.50,16.64 L33.34,16.38 L33.18,16.12 L33.00,15.86 L32.83,15.60 L32.64,15.35 L32.45,15.10 L32.26,14.86 L32.06,14.62 L31.85,14.39 L31.64,14.16 L31.42,13.93 L31.20,13.71 L30.97,13.50 L30.74,13.29 L30.50,13.08 L30.26,12.88 L30.01,12.69 L29.76,12.50 L29.50,12.32 L29.24,12.14 L28.97,11.97 L28.70,11.81 L28.43,11.65 L28.15,11.49 L27.87,11.35 L27.59,11.21 L27.30,11.07 L27.01,10.95 L26.72,10.83 L26.42,10.71 L26.12,10.61 L25.82,10.50 L25.51,10.41 L25.21,10.32 L24.90,10.25 L24.59,10.17 L24.27,10.11 L23.96,10.05 L23.64,10.00 L23.33,9.95 L23.01,9.92 L22.69,9.89 L22.37,9.87 L22.05,9.85 L21.73,9.84 L21.41,9.84 L21.09,9.85 L20.76,9.87 L20.44,9.89 L20.12,9.92 L19.80,9.95 L19.48,10.00 L19.16,10.05 L18.84,10.11 L18.53,10.17 L18.21,10.25 L17.90,10.33 L17.59,10.42 L17.28,10.51 L16.97,10.61 L16.66,10.72 L16.36,10.84 L16.06,10.96 L15.76,11.09 L15.46,11.23 L15.17,11.37 L14.88,11.52 L14.60,11.68 L14.31,11.84 L14.04,12.01 L13.76,12.19 L13.49,12.37 L13.22,12.56 L12.96,12.76 L12.70,12.96 L12.45,13.17 L12.20,13.38 L11.96,13.60 L11.72,13.82 L11.48,14.05 L11.25,14.29 L11.03,14.53 L10.81,14.78 L10.60,15.03 L10.39,15.28 L10.19,15.54 L9.99,15.81 L9.81,16.08 L9.62,16.36 L9.45,16.63 L9.27,16.92 L9.11,17.20 L8.95,17.49 L8.80,17.79 L8.66,18.09 L8.52,18.39 L8.39,18.69 L8.26,19.00 L8.15,19.31 L8.04,19.62 L7.93,19.94 L7.84,20.26 L7.75,20.58 L7.67,20.90 L7.60,21.23 L7.53,21.55 L7.47,21.88 L7.42,22.21 L7.38,22.54 L7.34,22.87 L7.31,23.20 L7.29,23.54 L7.28,23.87 L7.27,24.21 L7.27,24.54 L7.28,24.87 L7.30,25.21 L7.32,25.54 L7.35,25.88 L7.39,26.21 L7.44,26.54 L7.50,26.87 L7.56,27.20 L7.63,27.53 L7.71,27.86 L7.79,28.18 L7.88,28.51 L7.98,28.83 L8.09,29.15 L8.21,29.46 L8.33,29.78 L8.46,30.09 L8.59,30.40 L8.73,30.70 L8.88,31.00 L9.04,31.30 L9.21,31.60 L9.38,31.89 L9.55,32.18 L9.74,32.46 L9.93,32.74 L10.12,33.01 L10.33,33.29 L10.54,33.55 L10.75,33.81 L10.97,34.07 L11.20,34.32 L11.43,34.57 L11.67,34.81 L11.92,35.04 L12.16,35.27 L12.42,35.50 L12.68,35.72 L12.94,35.93 L13.21,36.14 L13.49,36.34 L13.77,36.53 L14.05,36.72 L14.34,36.90 L14.63,37.08 L14.93,37.25 L15.23,37.41 L15.53,37.56 L15.84,37.71 L16.15,37.85 L16.46,37.99 L16.78,38.11 L17.10,38.23 L17.42,38.34 L17.75,38.45 L18.07,38.55 L18.40,38.64 L18.74,38.72 L19.07,38.80 L19.41,38.86 L19.74,38.92 L20.08,38.98 L20.42,39.02 L20.76,39.06 L21.10,39.09 L21.45,39.11 L21.79,39.12 L22.13,39.13 L22.48,39.12 L22.82,39.11 L23.16,39.10 L23.50,39.07 L23.85,39.04 L24.19,39.00 L24.53,38.95 L24.87,38.89 L25.21,38.83 L25.54,38.75 L25.88,38.67 L26.21,38.59 L26.54,38.49 L26.87,38.39 L27.20,38.28 L27.52,38.16 L27.84,38.04 L28.16,37.90 L28.48,37.76 L28.79,37.62 L29.10,37.46 L29.40,37.30 L29.71,37.13 L30.00,36.96 L30.30,36.78 L30.59,36.59 L30.87,36.40 L31.16,36.19 L31.43,35.99 L31.70,35.77 L31.97,35.55 L32.23,35.33 L32.49,35.09 L32.74,34.86 L32.99,34.61 L33.23,34.36 L33.47,34.11 L33.69,33.85 L33.92,33.58 L34.14,33.31 L34.35,33.04 L34.55,32.76 L34.75,32.47 L34.94,32.18 L35.13,31.89 L35.31,31.59 L35.48,31.29 L35.64,30.98 L35.80,30.67 L35.95,30.36 L36.10,30.04 L36.23,29.72 L36.36,29.40 L36.48,29.07 L36.60,28.74 L36.71,28.41 L36.81,28.08 L36.90,27.74 L36.98,27.40 L37.06,27.06 L37.13,26.72 L37.19,26.38 L37.24,26.03 L37.29,25.69 L37.33,25.34 L37.36,24.99 L37.38,24.64 L37.39,24.30 L37.40,23.95 L37.40,23.60 L37.39,23.25 L37.37,22.90 L37.34,22.55 L37.31,22.20 L37.27,21.85 L37.22,21.51 L37.16,21.16 L37.10,20.82 L37.02,20.48 L36.94,20.14 L36.85,19.80 L36.76,19.46 L36.65,19.13 L36.54,18.79 L36.42,18.46 L36.30,18.14 L36.16,17.81 L36.02,17.49 L35.87,17.17 L35.72,16.86 L35.55,16.55 L35.38,16.24 L35.21,15.94 L35.02,15.64 L34.83,15.35 L34.63,15.05 L34.43,14.77 L34.22,14.49 L34.00,14.21 L33.78,13.94 L33.55,13.67 L33.31,13.41 L33.07,13.16 L32.83,12.91 L32.57,12.66 L32.32,12.42 L32.05,12.19 L31.78,11.96 L31.51,11.74 L31.23,11.53 L30.95,11.32 L30.66,11.12 L30.36,10.92 L30.07,10.73 L29.77,10.55 L29.46,10.38 L29.15,10.21 L28.84,10.05 L28.52,9.89 L28.20,9.75 L27.87,9.61 L27.55,9.47 L27.22,9.35 L26.88,9.23 L26.55,9.12 L26.21,9.02 L25.87,8.93 L25.53,8.84 L25.18,8.76 L24.84,8.69 L24.49,8.63 L24.14,8.58 L23.79,8.53 L23.44,8.49 L23.09,8.46 L22.73,8.44 L22.38,8.42 L22.03,8.41 L21.67,8.42 L21.32,8.42 L20.97,8.44 L20.61,8.47 L20.26,8.50 L19.91,8.54 L19.56,8.59 L19.21,8.65 L18.86,8.71 L18.52,8.79 L18.17,8.87 L17.83,8.96 L17.49,9.05 L17.15,9.16 L16.81,9.27 L16.48,9.39 L16.15,9.52 L15.82,9.65 L15.50,9.79 L15.17,9.94 L14.86,10.10 L14.54,10.26 L14.23,10.43 L13.92,10.61 L13.62,10.80 L13.32,10.99 L13.03,11.19 L12.74,11.39 L12.45,11.60 L12.17,11.82 L11.90,12.05 L11.63,12.28 L11.36,12.51 L11.11,12.76 L10.85,13.01 L10.60,13.26 L10.36,13.52 L10.13,13.79 L9.90,14.06 L9.67,14.33 L9.45,14.61 L9.24,14.90 L9.04,15.19 L8.84,15.49 L8.65,15.79 L8.46,16.09 L8.29,16.40 L8.12,16.71 L7.95,17.03 L7.80,17.35 L7.65,17.67 L7.51,18.00 L7.37,18.33 L7.25,18.66 L7.13,18.99 L7.02,19.33 L6.91,19.67 L6.82,20.02 L6.73,20.36 L6.65,20.71 L6.58,21.06 L6.51,21.41 L6.46,21.76 L6.41,22.11 L6.37,22.47 L6.33,22.82 L6.31,23.18 L6.29,23.53 L6.29,23.89 L6.29,24.25 L6.29,24.60 L6.31,24.96 L6.33,25.32 L6.37,25.67 L6.41,26.03 L6.46,26.38 L6.51,26.73 L6.58,27.08 L6.65,27.43 L6.73,27.78 L6.82,28.12 L6.91,28.47 L7.02,28.81 L7.13,29.15 L7.25,29.49 L7.38,29.82 L7.51,30.15 L7.65,30.48 L7.80,30.80 L7.96,31.12 L8.12,31.44 L8.29,31.75 L8.47,32.06 L8.66,32.37 L8.85,32.67 L9.05,32.97 L9.25,33.26" fill="none" stroke="#8fb3d3" stroke-width="1.6" stroke-linecap="round"/><circle cx="31.95" cy="11.47" r="3.6" fill="#2a6aa0" stroke="white" stroke-width="1.2"/><path d="M74.03999999999999 35.0H70.02Q69.6 35.0 69.35249999999999 34.79Q69.105 34.58 68.955 34.31L63.93 25.985Q63.81 26.36 63.644999999999996 26.630000000000003L58.83 34.31Q58.65 34.565 58.417500000000004 34.7825Q58.185 35.0 57.81 35.0H54.045L61.245 23.84L54.33 13.310000000000002H58.35Q58.769999999999996 13.310000000000002 58.957499999999996 13.422500000000001Q59.144999999999996 13.535 59.31 13.79L64.245 21.740000000000002Q64.395 21.365000000000002 64.605 20.990000000000002L69.135 13.865000000000002Q69.3 13.580000000000002 69.495 13.445000000000002Q69.69 13.310000000000002 69.99 13.310000000000002H73.845L66.87 23.675ZM95.78999999999999 24.155Q95.78999999999999 26.54 94.99499999999999 28.535Q94.19999999999999 30.53 92.75999999999999 31.97Q91.32 33.41 89.29499999999999 34.205Q87.27 35.0 84.79499999999999 35.0H76.53V13.310000000000002H84.79499999999999Q87.27 13.310000000000002 89.29499999999999 14.1125Q91.32 14.915 92.75999999999999 16.3475Q94.19999999999999 17.78 94.99499999999999 19.775000000000002Q95.78999999999999 21.770000000000003 95.78999999999999 24.155ZM91.64999999999999 24.155Q91.64999999999999 22.37 91.1775 20.9525Q90.705 19.535 89.8125 18.552500000000002Q88.91999999999999 17.57 87.65249999999999 17.045Q86.38499999999999 16.52 84.79499999999999 16.52H80.58V31.79H84.79499999999999Q86.38499999999999 31.79 87.65249999999999 31.265Q88.91999999999999 30.740000000000002 89.8125 29.7575Q90.705 28.775 91.1775 27.357499999999998Q91.64999999999999 25.939999999999998 91.64999999999999 24.155Z" fill="#1e4d76"/><path d="M105.62324999999998 22.302500000000002Q105.95324999999998 22.302500000000002 106.14712499999999 22.488125000000004Q106.34099999999998 22.673750000000002 106.34099999999998 22.979000000000003V24.200000000000003H98.15699999999998V23.523500000000002Q98.15699999999998 23.31725 98.24362499999998 23.090375Q98.33024999999999 22.863500000000002 98.51999999999998 22.682000000000002L102.14174999999999 19.052000000000003Q102.59549999999999 18.590000000000003 102.95437499999998 18.169250000000005Q103.31324999999998 17.748500000000003 103.55249999999998 17.336000000000006Q103.79175 16.923500000000004 103.919625 16.498625000000004Q104.04749999999999 16.073750000000004 104.04749999999999 15.603500000000002Q104.04749999999999 15.174500000000002 103.92374999999998 14.848625000000002Q103.79999999999998 14.522750000000002 103.57312499999998 14.300000000000002Q103.34624999999998 14.077250000000003 103.02862499999998 13.965875000000002Q102.71099999999998 13.854500000000002 102.31499999999998 13.854500000000002Q101.95199999999998 13.854500000000002 101.64262499999998 13.957625000000002Q101.33324999999999 14.060750000000002 101.094 14.246375000000002Q100.85474999999998 14.432000000000002 100.68974999999998 14.679500000000003Q100.52474999999998 14.927000000000003 100.44224999999999 15.224000000000002Q100.30199999999999 15.603500000000002 100.07924999999999 15.727250000000002Q99.85649999999998 15.851000000000003 99.43574999999998 15.785000000000002L98.36325 15.595250000000002Q98.48699999999998 14.737250000000003 98.84174999999999 14.089625000000002Q99.19649999999999 13.442000000000002 99.728625 13.008875000000003Q100.26074999999999 12.575750000000003 100.949625 12.357125000000003Q101.6385 12.138500000000002 102.43049999999998 12.138500000000002Q103.25549999999998 12.138500000000002 103.94024999999999 12.381875000000003Q104.62499999999999 12.625250000000003 105.11174999999999 13.070750000000004Q105.59849999999999 13.516250000000003 105.87074999999999 14.143250000000002Q106.14299999999999 14.770250000000003 106.14299999999999 15.537500000000003Q106.14299999999999 16.197500000000005 105.94912499999998 16.758500000000005Q105.75524999999999 17.3195 105.429375 17.831000000000003Q105.10349999999998 18.3425 104.66624999999999 18.821Q104.22899999999998 19.299500000000002 103.75049999999999 19.794500000000003L101.06099999999999 22.541750000000004Q101.44874999999999 22.426250000000003 101.83237499999998 22.364375000000003Q102.21599999999998 22.302500000000002 102.56249999999999 22.302500000000002Z" fill="#1e4d76"/><path d="M128.04 32.555V35.0H115.845V13.505000000000003H118.74V32.555ZM138.855 28.16Q137.01 28.22 135.71249999999998 28.4525Q134.415 28.685000000000002 133.5975 29.060000000000002Q132.78 29.435000000000002 132.4125 29.945Q132.045 30.455 132.045 31.085Q132.045 31.685 132.24 32.12Q132.435 32.555 132.77249999999998 32.832499999999996Q133.10999999999999 33.11 133.5675 33.2375Q134.025 33.365 134.54999999999998 33.365Q135.255 33.365 135.83999999999997 33.2225Q136.42499999999998 33.08 136.9425 32.81Q137.46 32.54 137.9325 32.165Q138.405 31.79 138.855 31.31ZM130.23 21.950000000000003Q131.49 20.735 132.945 20.134999999999998Q134.4 19.535 136.17 19.535Q137.445 19.535 138.435 19.955Q139.42499999999998 20.375 140.1 21.125Q140.775 21.875 141.12 22.94Q141.465 24.005000000000003 141.465 25.28V35.0H140.28Q139.89 35.0 139.68 34.8725Q139.47 34.745 139.35 34.37L139.04999999999998 32.93Q138.45 33.485 137.88 33.9125Q137.31 34.34 136.68 34.6325Q136.04999999999998 34.925 135.33749999999998 35.082499999999996Q134.625 35.24 133.755 35.24Q132.87 35.24 132.09 34.9925Q131.31 34.745 130.73250000000002 34.25Q130.155 33.755 129.8175 32.9975Q129.48 32.24 129.48 31.205Q129.48 30.305 129.975 29.4725Q130.47 28.64 131.57999999999998 27.995Q132.69 27.35 134.475 26.9375Q136.26 26.525 138.855 26.465V25.28Q138.855 23.509999999999998 138.08999999999997 22.6025Q137.325 21.695 135.855 21.695Q134.865 21.695 134.1975 21.942500000000003Q133.53 22.19 133.04250000000002 22.497500000000002Q132.555 22.805 132.2025 23.052500000000002Q131.85 23.3 131.505 23.3Q131.23499999999999 23.3 131.04 23.1575Q130.845 23.015 130.71 22.805ZM148.215 31.34Q148.95 32.33 149.8275 32.735Q150.70499999999998 33.14 151.755 33.14Q153.89999999999998 33.14 155.03999999999996 31.625Q156.17999999999998 30.11 156.17999999999998 27.11Q156.17999999999998 24.32 155.1675 23.0075Q154.155 21.695 152.28 21.695Q150.975 21.695 150.0075 22.295Q149.04 22.895 148.215 23.990000000000002ZM148.215 21.995Q149.17499999999998 20.884999999999998 150.3825 20.225Q151.59 19.565 153.165 19.565Q154.5 19.565 155.5725 20.075000000000003Q156.64499999999998 20.585 157.39499999999998 21.552500000000002Q158.14499999999998 22.52 158.5425 23.9Q158.94 25.28 158.94 27.005Q158.94 28.85 158.49 30.365000000000002Q158.04 31.88 157.1925 32.9525Q156.345 34.025 155.13 34.6175Q153.915 35.21 152.39999999999998 35.21Q150.89999999999998 35.21 149.8725 34.6475Q148.845 34.085 148.07999999999998 33.05L147.945 34.43Q147.825 35.0 147.255 35.0H145.53V12.905000000000001H148.215Z" fill="#555555"/></svg>
